<?xml version="1.0" encoding="UTF-8"?><svg id="Layer_1" xmlns="http://www.w3.org/2000/svg" viewBox="0 0 248.01 95.75"><defs><style>.cls-1,.cls-2{fill:#045;}.cls-2{fill-rule:evenodd;}</style></defs><path class="cls-2" d="M53.76,60.01c.27-3.05-.52-6.1-2.24-8.64-1.05-1.41-2.17-2.76-3.37-4.05-1.42-1.51-2.73-3.12-3.9-4.83l-.05-.07c-3.7-5.55-1.54-9.61.08-11.54.3-.41.67-.78,1.08-1.08l.07-.07.05.08c5.48,4.86,4.52,11.38,4.41,12.01l.77.77c1.33-1.67,3.66-7.35,1.67-11.65-1.95-4.21-5.92-6.67-6.4-6.95-.93.5-1.8,1.1-2.62,1.77l-.28.23c-.29.25-.59.52-.9.82-.13.12-.24.24-.35.37-.24.24-.48.51-.7.79-.05.06-.11.13-.16.19-.92,1.1-1.68,2.34-2.25,3.66,0,.03-.02.06-.03.08-.14.33-.27.67-.38,1.02-.6,1.74-.84,3.59-.7,5.43.05,1.14.31,2.26.76,3.3.02.06.05.11.07.16.12.27.25.53.39.79l.04.08c1.13,2.1,2.87,4.06,4.57,5.94,2.48,2.77,5.05,5.64,5.63,8.98.51,2.42-.09,4.93-1.65,6.85-.36.58-.82,1.08-1.36,1.49l-.06.04-.05-.05c-5.48-4.88-4.52-11.4-4.41-12.04l-.77-.77c-1.33,1.68-3.66,7.36-1.67,11.67,1.95,4.22,5.94,6.69,6.39,6.95,6.02-3.41,7.99-7.78,8.31-11.74ZM35.28,58.88c-3.56,1.62-5.63,1.01-5.63,1.01,1.43-7.44,8.35-10.77,8.35-10.77l.31-1.19c-1.98.03-8.64,1.83-11.55,6.23-1.76,2.73-2.71,5.9-2.75,9.14,0,0,4.98,2.16,11.33-.09-.24-1.43-.26-2.89-.05-4.33h0ZM36.4,45.41l-1.37-.84c-5.64-3.72-5.8-7.13-5.8-7.13,1.76-.28,3.56-.24,5.31.1l.1.02c-.04-1.52.13-3.04.51-4.52-5.27-1.84-11.16.4-11.16.4v.35c.09,2.96,1.02,5.82,2.69,8.27,1.3,1.92,2.95,3.58,4.86,4.89,1.53-.69,3.13-1.2,4.77-1.52l.08-.02ZM60.03,48.96c-1.54.72-3.16,1.24-4.82,1.56l.07.04c2.69,1.67,6.6,4.36,6.96,7.87-1.76.33-3.57.29-5.31-.1-.31-.08-.58-.16-.83-.23-.01,1.46-.18,2.92-.51,4.34.72.24,1.61.49,2.1.59,3.26.68,6.64.47,9.79-.6,0,0,.59-7.78-7.44-13.47h0ZM67.43,33.25s-5.3-2.3-11.95.33c.11,1.55-.02,3.1-.38,4.61,4.2-2.27,6.68-1.53,6.68-1.53-1.43,7.43-8.35,10.75-8.35,10.75l-.31,1.19c1.98-.03,8.64-1.83,11.55-6.23,1.76-2.72,2.71-5.89,2.75-9.13h0Z"/><path class="cls-1" d="M79.47,52.38s1.51,1.64,4.04,1.64c1.45,0,2.72-.73,2.72-2.15,0-2.96-7.3-2.23-7.3-6.65,0-2.42,2.18-3.74,4.63-3.74,2.85,0,4.17,1.48,4.17,1.48l-.84,1.4s-1.16-1.24-3.39-1.24c-1.37,0-2.69.59-2.69,2.1,0,2.99,7.3,2.18,7.3,6.65,0,2.21-1.91,3.8-4.63,3.8-3.28,0-5.01-1.96-5.01-1.96l1-1.32h0Z"/><path class="cls-1" d="M97.67,41.48c3.96,0,7.16,3.01,7.16,7.03s-3.2,7.16-7.16,7.16-7.16-3.07-7.16-7.16,3.2-7.03,7.16-7.03ZM97.67,54.02c2.91,0,5.28-2.37,5.28-5.52s-2.37-5.36-5.28-5.36-5.28,2.29-5.28,5.36,2.37,5.52,5.28,5.52Z"/><path class="cls-1" d="M108.25,41.8h1.8v2.02c0,.59-.05,1.08-.05,1.08h.05c.49-1.24,2.21-3.42,5.41-3.42s4.52,1.91,4.52,5.25v8.61h-1.83v-8.13c0-2.13-.32-4.01-2.93-4.01-2.31,0-4.31,1.59-4.93,3.82-.16.57-.22,1.19-.22,1.83v6.49h-1.83v-13.54h0Z"/><path class="cls-1" d="M129.41,41.48c3.28,0,4.42,2.56,4.42,2.56h.05s-.05-.46-.05-1.02v-6.59h1.83v18.93h-1.78v-1.43c0-.59.05-.97.05-.97h-.05s-1.1,2.72-4.66,2.72-5.9-2.91-5.9-7.11,2.53-7.08,6.08-7.08h0ZM129.49,54.02c2.26,0,4.39-1.62,4.39-5.46,0-2.74-1.4-5.44-4.31-5.44-2.4,0-4.36,2.02-4.36,5.44s1.75,5.46,4.28,5.46Z"/><path class="cls-1" d="M145.81,41.48c3.74,0,5.65,2.88,5.65,6.24,0,.32-.05.94-.05.94h-10.39c.08,3.47,2.45,5.36,5.25,5.36,2.48,0,4.12-1.64,4.12-1.64l.84,1.4s-1.96,1.88-5.01,1.88c-4.04,0-7.08-2.91-7.08-7.08,0-4.44,3.01-7.11,6.67-7.11h0ZM149.6,47.16c-.11-2.83-1.83-4.15-3.85-4.15-2.26,0-4.23,1.43-4.66,4.15h8.51Z"/><path class="cls-1" d="M154.96,41.8h1.8v2.39c0,.59-.05,1.08-.05,1.08h.05c.65-2.05,2.15-3.61,4.28-3.61.38,0,.73.08.73.08v1.8s-.32-.05-.67-.05c-1.91,0-3.34,1.51-3.93,3.5-.27.86-.38,1.78-.38,2.64v5.71h-1.83v-13.54Z"/><path class="cls-1" d="M164.38,41.72h2.53v1.8c0,.54-.05,1-.05,1h.05c.65-1.59,2.56-3.12,4.68-3.12,2.29,0,3.63,1.05,4.09,3.09h.05c.76-1.64,2.64-3.09,4.85-3.09,3.07,0,4.5,1.75,4.5,5.22v8.72h-2.61v-8.16c0-1.91-.38-3.42-2.42-3.42-1.91,0-3.34,1.62-3.82,3.47-.14.57-.19,1.19-.19,1.88v6.22h-2.61v-8.16c0-1.78-.27-3.42-2.37-3.42s-3.39,1.64-3.9,3.58c-.13.54-.16,1.16-.16,1.78v6.22h-2.61v-13.62h0Z"/><path class="cls-1" d="M188.96,36.33h2.64v2.66h-2.64v-2.66ZM188.99,41.72h2.61v13.62h-2.61v-13.62Z"/><path class="cls-1" d="M195.69,41.72h2.53v1.8c0,.54-.05,1-.05,1h.05c.54-1.19,2.15-3.12,5.11-3.12,3.2,0,4.68,1.75,4.68,5.22v8.72h-2.61v-8.13c0-1.91-.4-3.42-2.58-3.42s-3.74,1.37-4.31,3.34c-.16.54-.22,1.16-.22,1.83v6.38h-2.61v-13.62h0Z"/><path class="cls-1" d="M217.2,41.39c3.15,0,4.2,2.15,4.2,2.15h.05s-.05-.4-.05-.92v-6.3h2.61v19.01h-2.48v-1.29c0-.54.03-.92.03-.92h-.05s-1.1,2.53-4.47,2.53c-3.69,0-6-2.91-6-7.13s2.56-7.13,6.16-7.13h0ZM217.55,53.4c2.02,0,3.93-1.43,3.93-4.9,0-2.42-1.27-4.85-3.85-4.85-2.15,0-3.93,1.78-3.93,4.87s1.59,4.87,3.85,4.87h0Z"/></svg>